<svg viewBox="0 0 1109 264" fill="none" xmlns="http://www.w3.org/2000/svg">
    <path d="M477.594 160.857C477.594 184.037 496.452 202.896 519.632 202.896C542.812 202.896 561.669 184.038 561.669 160.857C561.669 137.678 542.811 118.819 519.632 118.819C496.453 118.819 477.594 137.678 477.594 160.857Z"
          fill="#A1E42C"/>
    <path fill-rule="evenodd" clip-rule="evenodd"
          d="M1058.13 73.818V247.899C1058.13 254.428 1058.13 263.717 1034.04 263.717H449.914C433.971 263.717 421 250.746 421 234.804V86.9136C421 70.9709 433.971 58 449.914 58H1034.04C1058.13 58 1058.13 67.2892 1058.13 73.818ZM689.123 97.9005H689.224C694.912 97.9005 699.55 102.483 699.606 108.182L700.588 209.789C700.588 215.741 697.321 220.543 692.264 222.122C687.333 223.659 682.105 221.706 678.945 217.139L626.905 141.784V213.434C626.905 219.169 622.257 223.817 616.522 223.817C610.788 223.817 606.14 219.169 606.14 213.434V108.48C606.14 103.937 609.095 99.9209 613.433 98.5685C617.77 97.2148 622.483 98.8423 625.065 102.581L679.548 181.475L678.842 108.383C678.786 102.65 683.389 97.956 689.123 97.9005ZM952.591 97.9005H952.693C958.38 97.9005 963.017 102.483 963.074 108.182L964.056 209.789C964.056 215.741 960.791 220.542 955.733 222.122C950.805 223.656 945.574 221.706 942.414 217.142L890.373 141.784V213.434C890.373 219.169 885.725 223.817 879.991 223.817C874.256 223.817 869.608 219.169 869.608 213.434V108.48C869.608 103.937 872.563 99.9209 876.901 98.5685C881.237 97.2189 885.952 98.8423 888.533 102.581L943.016 181.476L942.31 108.383C942.254 102.65 946.858 97.956 952.591 97.9005ZM779.124 202.808H779.064C769.84 202.859 759.902 202.896 752.793 202.897V108.439C752.793 102.704 748.145 98.0563 742.411 98.0563C736.677 98.0563 732.028 102.704 732.028 108.439V213.19C732.028 218.248 735.672 222.568 740.654 223.423C742.925 223.815 769.614 223.637 777.412 223.585L778.312 223.579C778.68 223.576 778.973 223.574 779.18 223.573C784.913 223.541 789.535 218.867 789.504 213.132C789.473 207.418 784.83 202.808 779.124 202.808ZM818.194 108.439C818.194 102.704 822.844 98.0563 828.577 98.0563C834.312 98.0563 838.96 102.703 838.96 108.439V213.28C838.96 219.015 834.312 223.663 828.577 223.663C822.842 223.663 818.194 219.015 818.194 213.28V108.439ZM1044.28 202.418H1010.89V171.24H1041.06C1046.79 171.24 1051.44 166.592 1051.44 160.857C1051.44 155.122 1046.79 150.474 1041.06 150.474H1010.89V119.297H1044.28C1050.02 119.297 1054.67 114.649 1054.67 108.915C1054.67 103.18 1050.02 98.532 1044.28 98.532H1000.51C994.778 98.532 990.128 103.18 990.128 108.915V212.799C990.128 218.534 994.776 223.182 1000.51 223.182H1044.28C1050.02 223.182 1054.67 218.534 1054.67 212.799C1054.67 207.064 1050.02 202.418 1044.28 202.418ZM456.829 160.858C456.829 126.229 485.002 98.0563 519.632 98.0563C554.261 98.0563 582.434 126.229 582.434 160.858C582.434 195.488 554.261 223.661 519.632 223.661C485.002 223.661 456.829 195.488 456.829 160.858Z"
          fill="#A1E42C"/>
    <path d="M1080.09 58H1034.04C1044.41 58 1052.82 66.4084 1052.82 76.7803V244.937C1052.82 255.308 1044.41 263.717 1034.04 263.717H1080.09C1096.03 263.717 1109 250.747 1109 234.803V86.9136C1109 70.971 1096.03 58 1080.09 58V58Z"
          fill="#95D528"/>
    <path fill-rule="evenodd" clip-rule="evenodd"
          d="M297.771 106.487L270.5 247.649C269.167 254.55 264.409 263.999 241.968 264H72.1371C60.2773 264 50.085 255.588 47.8352 243.943L21.2808 106.487H297.771ZM251.393 231.941C251.726 231.99 252.058 232.013 252.385 232.013C255.722 232.013 258.642 229.565 259.137 226.165L270.768 146.29C271.312 142.555 268.725 139.088 264.991 138.544C261.252 137.992 257.79 140.587 257.246 144.321L245.616 224.196C245.072 227.93 247.659 231.397 251.393 231.941ZM142.685 225.511C142.863 229.168 145.883 232.012 149.504 232.012C149.617 232.012 149.728 232.009 149.84 232.004C153.609 231.82 156.516 228.617 156.333 224.849L152.457 144.974C152.274 141.206 149.101 138.294 145.302 138.481C141.533 138.665 138.626 141.868 138.809 145.636L142.685 225.511ZM91.3161 226.165C91.811 229.565 94.7305 232.013 98.0682 232.013C98.3963 232.013 98.7281 231.989 99.0616 231.942C102.795 231.399 105.382 227.931 104.838 224.196L93.2083 144.322C92.6644 140.588 89.1956 138.005 85.4629 138.545C81.7293 139.088 79.1424 142.556 79.6864 146.291L91.3161 226.165ZM200.949 232.013C200.838 232.013 200.725 232.01 200.612 232.004C196.844 231.821 193.937 228.618 194.119 224.849L197.996 144.975C198.178 141.206 201.368 138.31 205.151 138.481C208.919 138.665 211.826 141.868 211.643 145.636L207.767 225.511C207.59 229.168 204.569 232.013 200.949 232.013Z"
          fill="#FC5692"/>
    <path d="M292.823 106.486L266.269 243.943C264.019 255.587 253.827 263.999 241.967 263.999H278.589C290.448 263.999 300.641 255.587 302.891 243.943L329.445 106.486H292.823Z"
          fill="#FB3580"/>
    <path d="M340.373 110.821H10.081C4.65045 110.821 0.248047 106.419 0.248047 100.988V87.7285C0.248047 82.2979 4.65045 77.8955 10.081 77.8955H340.373C345.803 77.8955 350.205 82.2979 350.205 87.7285V100.988C350.205 106.419 345.803 110.821 340.373 110.821Z"
          fill="#FB0363"/>
    <path d="M92.0955 90.176C90.2755 90.176 88.4564 89.4742 87.0805 88.0733C84.3599 85.3037 84.4 80.8531 87.1697 78.1334L160.684 5.92668C168.702 -1.97749 181.763 -1.9766 189.789 5.9356L262.88 78.1476C265.642 80.8754 265.669 85.3251 262.941 88.0876C260.212 90.8475 255.763 90.8751 253.001 88.1473L179.915 15.9406C177.336 13.3993 173.129 13.3984 170.544 15.946L97.0196 88.1625C95.6517 89.5063 93.8727 90.176 92.0955 90.176V90.176Z"
          fill="#E10355"/>
</svg>
